<svg width="57" height="38" viewBox="0 0 57 38" fill="none" xmlns="http://www.w3.org/2000/svg">
<g id="9044639_humidity_alt_icon 1" clip-path="url(#clip0_95_621)">
<path id="Vector" d="M48.125 14.875C46.289 14.9076 44.5084 14.454 43.173 13.6134C41.8376 12.7728 41.0563 11.6136 41 10.3898C41.0334 9.51599 41.4368 8.66632 42.1637 7.93889L46.6466 3.49171C46.8189 3.339 47.042 3.21509 47.2985 3.12976C47.555 3.04442 47.8377 3 48.1243 3C48.4109 3 48.6936 3.04442 48.9501 3.12976C49.2065 3.21509 49.4297 3.339 49.602 3.49171L54.0306 7.88059C54.7869 8.62258 55.21 9.49306 55.25 10.3898C55.1937 11.6136 54.4124 12.7728 53.077 13.6134C51.7416 14.454 49.961 14.9076 48.125 14.875ZM48.125 6.28126L45.1749 9.20548C44.8063 9.5535 44.5939 9.96426 44.5625 10.3898C44.6655 10.9714 45.0852 11.5076 45.7418 11.8968C46.3985 12.2859 47.2465 12.5008 48.125 12.5008C49.0035 12.5008 49.8515 12.2859 50.5082 11.8968C51.1648 11.5076 51.5845 10.9714 51.6875 10.3898C51.6475 9.94147 51.4157 9.51019 51.0195 9.14694L48.125 6.28126Z" fill="white"/>
<path id="Vector_2" d="M41.2981 35.625H14.5793C11.7105 35.6263 8.94322 34.9171 6.81444 33.635C4.68566 32.3529 3.34718 30.5894 3.05868 28.6865C2.77019 26.7837 3.55227 24.8772 5.25316 23.3371C6.95406 21.7969 9.45249 20.7329 12.2637 20.3515C13.0219 17.9543 14.9932 15.8038 17.8472 14.2604C20.7012 12.7171 24.2644 11.8748 27.9392 11.8748C31.6141 11.8748 35.1772 12.7171 38.0312 14.2604C40.8852 15.8038 42.8566 17.9543 43.6148 20.3515C46.4253 20.7334 48.923 21.7977 50.6232 23.3378C52.3235 24.8779 53.1051 26.7841 52.8165 28.6867C52.5279 30.5892 51.1897 32.3525 49.0614 33.6345C46.9331 34.9165 44.1664 35.6259 41.2981 35.625ZM27.9387 14.25C24.8974 14.2518 21.9619 14.9946 19.6847 16.3386C17.4075 17.6825 15.9457 19.535 15.5743 21.5474L15.3978 22.5119L13.9452 22.5879C11.8811 22.696 9.96008 23.3327 8.58497 24.3645C7.20985 25.3964 6.48755 26.7431 6.56957 28.1223C6.6516 29.5015 7.53158 30.8059 9.02492 31.7619C10.5183 32.7179 12.5089 33.2512 14.5793 33.25H41.2981C43.3685 33.2514 45.3593 32.7181 46.8528 31.7621C48.3463 30.8062 49.2264 29.5017 49.3085 28.1225C49.3906 26.7433 48.6684 25.3965 47.2932 24.3646C45.9181 23.3327 43.997 22.696 41.9329 22.5879L40.4805 22.5119L40.3048 21.5474C39.9326 19.5351 38.4703 17.6827 36.1929 16.3388C33.9155 14.9949 30.9801 14.2521 27.9387 14.25Z" fill="white"/>
</g>
<defs>
<clipPath id="clip0_95_621">
<rect width="57" height="38" fill="white"/>
</clipPath>
</defs>
</svg>
