<svg width="77" height="59" viewBox="0 0 77 59" fill="none" xmlns="http://www.w3.org/2000/svg">
<g id="9772474_weather_cloudy_sunny_forecast_sun_icon 1">
<g id="cloudy_sunny">
<g id="Group">
<path id="Vector" d="M45.7188 11.0625C34.1687 11.0625 24.6641 18.0688 24.0625 26.8266C21.4156 28.2094 19.3703 30.1453 18.2875 32.5422C17.6859 32.45 17.2047 32.45 16.6031 32.45C9.50469 32.45 3.60938 36.9672 3.60938 42.4984C3.60938 48.0297 9.50469 52.5469 16.7234 52.5469H50.2906C56.4266 52.5469 61.3594 48.7672 61.3594 44.0656C61.3594 42.5906 60.8781 41.3 60.0359 40.1016C64.7281 36.9672 67.375 32.45 67.375 27.6562C67.375 18.5297 57.6297 11.0625 45.7188 11.0625ZM50.2906 50.7031H16.7234C10.8281 50.7031 6.01562 47.0156 6.01562 42.4984C6.01562 37.9812 10.8281 34.2938 16.7234 34.2938C17.4453 34.2938 18.1672 34.3859 19.0094 34.4781C19.6109 34.5703 20.2125 34.2938 20.4531 33.8328C21.7766 29.6844 26.8297 26.7344 32.4844 26.7344C39.4625 26.7344 45.1172 31.0672 45.1172 36.4141C45.1172 36.9672 45.5984 37.3359 46.3203 37.3359H50.2906C55.1031 37.3359 58.9531 40.2859 58.9531 43.9734C58.9531 47.6609 55.1031 50.7031 50.2906 50.7031ZM58.7125 38.5344C56.6672 36.6906 53.6594 35.5844 50.2906 35.5844H47.5234C46.9219 29.5922 40.425 24.8906 32.4844 24.8906C30.4391 24.8906 28.3938 25.2594 26.5891 25.8125C27.7922 18.5297 35.9734 12.9062 45.7188 12.9062C56.3063 12.9062 64.9688 19.5437 64.9688 27.6562C64.9688 31.8047 62.6828 35.7687 58.7125 38.5344Z" fill="white" stroke="white" stroke-width="3"/>
<path id="Vector_2" d="M45.7188 9.21875C46.4406 9.21875 46.9219 8.85 46.9219 8.29688V7.375C46.9219 6.82187 46.4406 6.45312 45.7188 6.45312C44.9969 6.45312 44.5156 6.82187 44.5156 7.375V8.29688C44.5156 8.85 44.9969 9.21875 45.7188 9.21875Z" fill="white" stroke="white" stroke-width="3"/>
<path id="Vector_3" d="M72.1875 26.7344H70.9844C70.2625 26.7344 69.7812 27.1031 69.7812 27.6562C69.7812 28.2094 70.2625 28.5781 70.9844 28.5781H72.1875C72.9094 28.5781 73.3906 28.2094 73.3906 27.6562C73.3906 27.1031 72.9094 26.7344 72.1875 26.7344Z" fill="white" stroke="white" stroke-width="3"/>
<path id="Vector_4" d="M19.25 28.5781H20.4531C21.175 28.5781 21.6562 28.2094 21.6562 27.6562C21.6562 27.1031 21.175 26.7344 20.4531 26.7344H19.25C18.5281 26.7344 18.0469 27.1031 18.0469 27.6562C18.0469 28.2094 18.5281 28.5781 19.25 28.5781Z" fill="white" stroke="white" stroke-width="3"/>
<path id="Vector_5" d="M63.7656 14.75C64.1266 14.75 64.3672 14.6578 64.6078 14.4734L65.3297 13.9203C65.8109 13.5516 65.8109 12.9984 65.3297 12.6297C64.8484 12.2609 64.1266 12.2609 63.6453 12.6297L62.9234 13.1828C62.4422 13.5516 62.4422 14.1047 62.9234 14.4734C63.1641 14.6578 63.4047 14.75 63.7656 14.75Z" fill="white" stroke="white" stroke-width="3"/>
<path id="Vector_6" d="M64.6078 40.8391C64.1266 40.4703 63.4047 40.4703 62.9234 40.8391C62.4422 41.2078 62.4422 41.7609 62.9234 42.1297L63.6453 42.6828C63.8859 42.8672 64.2469 42.9594 64.4875 42.9594C64.7281 42.9594 65.0891 42.8672 65.3297 42.6828C65.8109 42.3141 65.8109 41.7609 65.3297 41.3922L64.6078 40.8391Z" fill="white" stroke="white" stroke-width="3"/>
<path id="Vector_7" d="M26.8297 14.4734C27.0703 14.6578 27.4313 14.75 27.6719 14.75C27.9125 14.75 28.2734 14.6578 28.5141 14.4734C28.9953 14.1047 28.9953 13.5516 28.5141 13.1828L27.7922 12.6297C27.3109 12.2609 26.5891 12.2609 26.1078 12.6297C25.6266 12.9984 25.6266 13.5516 26.1078 13.9203L26.8297 14.4734Z" fill="white" stroke="white" stroke-width="3"/>
</g>
</g>
</g>
</svg>
