<svg width="68" height="31" viewBox="0 0 68 31" fill="none" xmlns="http://www.w3.org/2000/svg">
<g id="Page-1">
<g id="Core">
<g id="visibility">
<path id="Shape" fill-rule="evenodd" clip-rule="evenodd" d="M34 0C18.5455 0 5.25455 6.40667 0 15.5C5.25455 24.5933 18.5455 31 34 31C49.4545 31 62.7455 24.5933 68 15.5C62.7455 6.40667 49.4545 0 34 0ZM34 25.8333C25.3455 25.8333 18.5455 21.2867 18.5455 15.5C18.5455 9.71333 25.3455 5.16667 34 5.16667C42.6545 5.16667 49.4545 9.71333 49.4545 15.5C49.4545 21.2867 42.6545 25.8333 34 25.8333ZM34 9.3C28.7455 9.3 24.7273 11.9867 24.7273 15.5C24.7273 19.0133 28.7455 21.7 34 21.7C39.2545 21.7 43.2727 19.0133 43.2727 15.5C43.2727 11.9867 39.2545 9.3 34 9.3Z" fill="white"/>
</g>
</g>
</g>
</svg>
