<svg width="74" height="34" viewBox="0 0 74 34" fill="none" xmlns="http://www.w3.org/2000/svg">
<path id="Vector" d="M28.8118 4.03247C29.6018 3.62352 30.5759 3.32135 31.6476 3.15282C32.7192 2.98429 33.8552 2.95462 34.9545 3.06645C36.0538 3.17829 37.0824 3.42816 37.9488 3.79385C38.8152 4.15954 39.4926 4.62973 39.9208 5.16261C40.349 5.69549 40.5147 6.27456 40.4032 6.84834C40.2916 7.42212 39.9063 7.97282 39.2815 8.45151C38.6567 8.9302 37.8118 9.32203 36.8218 9.59217C35.8318 9.86232 34.7274 10.0024 33.6068 9.99998H3M39.0141 29.9675C39.8041 30.3765 40.7782 30.6787 41.8498 30.8472C42.9215 31.0157 44.0575 31.0454 45.1568 30.9335C46.2561 30.8217 47.2846 30.5718 48.1511 30.2062C49.0175 29.8405 49.6949 29.3703 50.1231 28.8374C50.5513 28.3045 50.717 27.7254 50.6054 27.1517C50.4939 26.5779 50.1086 26.0272 49.4838 25.5485C48.859 25.0698 48.0141 24.678 47.0241 24.4078C46.0341 24.1377 44.9297 23.9976 43.8091 24H3M56.494 9.52748C57.4831 9.01978 58.7001 8.64533 60.0373 8.43725C61.3746 8.22917 62.7909 8.19388 64.1609 8.33448C65.531 8.47509 66.8126 8.78727 67.8924 9.2434C68.9723 9.69954 69.817 10.2856 70.352 10.9497C70.8869 11.6138 71.0956 12.3355 70.9596 13.051C70.8235 13.7665 70.347 14.4537 69.572 15.0519C68.797 15.6501 67.7476 16.1407 66.5164 16.4805C65.2852 16.8203 63.9104 16.9987 62.5133 17H3" stroke="white" stroke-width="5" stroke-linecap="round" stroke-linejoin="round"/>
</svg>
